<?xml version="1.0" encoding="utf-8"?>
<!-- Generator: Adobe Illustrator 24.0.3, SVG Export Plug-In . SVG Version: 6.00 Build 0)  -->
<svg version="1.1" id="Layer_1" xmlns:xodm="http://www.corel.com/coreldraw/odm/2003"
	 xmlns="http://www.w3.org/2000/svg" xmlns:xlink="http://www.w3.org/1999/xlink" x="0px" y="0px" viewBox="0 0 331.3 338.8"
	 style="enable-background:new 0 0 331.3 338.8;" xml:space="preserve">
<style type="text/css">
	.st0{fill:#007D92;}
	.st1{fill-rule:evenodd;clip-rule:evenodd;fill:#FFFFFF;}
</style>
<path class="st0" d="M231.3,338.8H100c-55,0-100-45-100-100V100C0,45,45,0,100,0h131.3c55,0,100,45,100,100v138.8
	C331.3,293.8,286.3,338.8,231.3,338.8z"/>
<g id="Ebene_x0020_1">
	<path class="st1" d="M91.2,223.6L91.2,223.6c-1-1.6-0.7-4.6,0.9-6.5l9.9-12.2l-0.9-15.1c-0.1-2.4,1.3-5,3.1-5.9l0,0
		c1.9-0.8,3.6,0.4,3.7,2.8l0.9,15.1l10.8,3.1c1.7,0.5,2.5,2.9,1.6,5.4l0,0c-0.8,2.5-2.8,4.1-4.6,3.7l-10.8-3.1L96,223
		C94.5,225,92.4,225.3,91.2,223.6L91.2,223.6z M242,123.9L242,123.9c1.6,1.1,2.4,4,1.6,6.4l-4.6,14.9l6.6,13.7
		c1,2.2,0.7,5.1-0.7,6.6l0,0c-1.4,1.5-3.5,0.9-4.6-1.2l-6.6-13.7l-11.2,1.3c-1.8,0.2-3.4-1.8-3.6-4.4l0,0c-0.2-2.6,1.1-4.9,2.8-5.1
		l11.2-1.3l4.6-14.9C238.4,123.7,240.2,122.7,242,123.9L242,123.9z M206.1,247.8L206.1,247.8c-1.3,1.6-4.3,2.4-6.8,1.5l-15.7-5.4
		l-14.7,6.4c-2.3,1-5.4,0.6-6.9-1l0,0c-1.5-1.6-0.9-3.7,1.5-4.7l14.7-6.4l-0.9-11.9c-0.1-1.9,2-3.5,4.8-3.6l0,0
		c2.8-0.1,5.1,1.3,5.3,3.2l0.9,11.9l15.7,5.4C206.4,244.1,207.3,246.1,206.1,247.8L206.1,247.8z M96.2,111L96.2,111
		c0.5-2,3.1-3.8,5.7-4l16.5-0.9l11.2-11.6c1.8-1.8,4.9-2.6,6.8-1.7l0,0c2,0.9,2.2,3.1,0.4,4.9l-11.2,11.6l5.4,10.7
		c0.9,1.7-0.5,4-3.1,5.1l0,0c-2.5,1.1-5.3,0.7-6.1-1l-5.3-10.7l-16.5,0.9C97.4,114.5,95.7,113,96.2,111z M209.5,213.2L209.5,213.2
		c-1.4-1.7-1.2-4.3,0.5-5.8l10.9-9.3l-2.6-14c-0.4-2.2,1-4.4,3.3-4.7l0,0c2.2-0.4,4.4,1,4.7,3.3l2.5,14l13.4,4.8
		c2.2,0.8,3.2,3.1,2.5,5.2l0,0c-0.8,2.2-3.1,3.2-5.2,2.5l-13.4-4.8l-10.9,9.2C213.5,215.1,210.9,214.9,209.5,213.2L209.5,213.2z
		 M107.5,140.7L107.5,140.7c2,1,2.8,3.5,1.7,5.5l-6.6,12.6l7.7,12c1.2,1.9,0.7,4.5-1.2,5.7l0,0c-1.9,1.2-4.5,0.7-5.7-1.2l-7.8-12.1
		l-14.3,0.7c-2.2,0.1-4.2-1.6-4.3-4l0,0c-0.1-2.2,1.6-4.2,4-4.3l14.3-0.7l6.6-12.6C103,140.4,105.5,139.5,107.5,140.7L107.5,140.7z
		 M110.4,227.4L110.4,227.4c-0.3-2.5,1.3-4,3.7-3.6l14.3,2.7l5.7-11.9c0.9-1.9,3.4-2.2,5.4-0.6l0,0c2.1,1.6,3.1,4.4,2.2,6.3
		l-5.7,11.9l8.6,14.5c1.3,2.3,1,4.9-0.9,5.7l0,0c-1.9,0.9-4.5-0.4-5.8-2.7l-8.5-14.6l-14.3-2.7C112.7,232,110.6,229.7,110.4,227.4
		L110.4,227.4z M192.6,93.6L192.6,93.6c1.1,2.2,0.2,4.3-2,4.7l-14.3,2.9l-0.9,13.1c-0.1,2.1-2.3,3.2-4.8,2.6l0,0
		c-2.5-0.7-4.6-2.8-4.4-4.9l0.9-13.1l-13.4-10.1c-2.2-1.6-2.8-4.1-1.3-5.6l0,0c1.3-1.4,4.3-1.3,6.4,0.2l13.4,10.1l14.3-2.9
		C188.7,90.2,191.5,91.5,192.6,93.6L192.6,93.6z M160.3,132.4L160.3,132.4c1.7,2.2,1.3,5.4-0.9,7.2l-14.1,10.8l2.3,17.6
		c0.4,2.8-1.6,5.4-4.4,5.7l0,0c-2.8,0.4-5.4-1.6-5.7-4.4l-2.3-17.6l-16.4-6.8c-2.6-1-3.8-4.1-2.8-6.6l0,0c1-2.6,4.1-3.8,6.6-2.8
		l16.4,6.8l14.1-10.8C155.4,129.8,158.6,130.1,160.3,132.4L160.3,132.4z M202.4,179.3L202.4,179.3c0.8,2.7-0.7,5.5-3.4,6.4l-17,5.1
		l-4,17.3c-0.7,2.8-3.4,4.5-6.2,3.8l0,0c-2.8-0.7-4.5-3.4-3.8-6.2l4-17.3l-12.9-12.1c-2.1-1.9-2.2-5.1-0.2-7.2l0,0
		c1.9-2.1,5.1-2.2,7.2-0.2l13,12.1l17-5.1C198.8,175.1,201.6,176.5,202.4,179.3L202.4,179.3z M213,118.3L213,118.3
		c2.2,1.8,2.5,5,0.6,7.2L202.1,139l6,16.7c0.9,2.7-0.4,5.6-3.1,6.5l0,0c-2.7,0.9-5.6-0.4-6.5-3.1l-6-16.7l-17.5-3.1
		c-2.8-0.5-4.6-3.1-4.1-6l0,0c0.5-2.8,3.1-4.6,6-4.1l17.5,3.1l11.5-13.6C207.6,116.8,210.9,116.5,213,118.3z M150.9,70.6
		c4.6-0.7,9.1-1,13.6-1l-1.1-6.4l-16-4c-2.5-0.7-3.7-2.6-2.7-4.4l0,0c1-1.8,4.1-2.8,6.6-2.2l16,4l14-7.8c2.2-1.2,5.4-1,7,0.4l0,0
		c1.6,1.4,1.2,3.6-1,4.9l-14,7.8l1.4,8.3c15,1.5,29.2,6.4,41.6,14.1l2.6-5.2l-10.3-12.2c-1.6-1.9-1.4-4.2,0.4-4.9l0,0
		c1.9-0.8,4.7,0.1,6.4,2.2l10.3,12.2l15.5,1.9c2.5,0.3,4.9,2.2,5.3,4.3l0,0c0.5,2.1-1.1,3.5-3.6,3.2l-15.5-1.9l-3,6.1
		c12.8,9.8,23.3,22.7,30.2,37.8l6-1.7l2-15.9c0.3-2.5,2.1-3.9,4-3l0,0c1.9,0.9,3.1,3.6,2.8,6.2l-2,15.9l9.2,12.7
		c1.4,2,1.6,5.1,0.4,6.8l0,0c-1.2,1.7-3.4,1.6-4.8-0.4l-9.2-12.7l-4.7,1.3c1.9,5.7,3.4,11.8,4.3,18c1.1,8.4,1.3,16.6,0.4,24.7
		l5.2,1.8l10.7-11.9c1.7-1.9,4-2,4.9-0.2l0,0c1,1.8,0.5,4.7-1.2,6.6L272,187.8l0.2,15.7c0,2.5-1.6,5.1-3.6,5.9l0,0
		c-2,0.7-3.7-0.7-3.7-3.1l-0.2-15.7l-3.3-1.1c-3,14-9,27.1-17.5,38.4l6.7,3.4l12.3-10.3c1.9-1.6,4.2-1.4,4.9,0.5l0,0
		c0.8,1.9-0.2,4.7-2.2,6.4l-12.2,10.2l-1.9,15.5c-0.3,2.5-2.3,4.8-4.3,5.3l0,0c-2.1,0.4-3.5-1.1-3.2-3.6l1.9-15.5l-8.4-4.2
		c-9,9.8-20,17.8-32.5,23.4l2.1,9.5l15.7,3.1c2.5,0.5,3.7,2.4,2.8,4.2l0,0c-1,1.8-3.8,2.8-6.3,2.4l-15.7-3.1l-13.3,8.2
		c-2.1,1.3-5.1,1.3-6.9-0.1l0,0c-1.6-1.3-1.3-3.4,0.8-4.7l13.3-8.2l-1.6-7.5c-5.6,1.9-11.4,3.2-17.4,4.1c-7.6,1-15.1,1.2-22.5,0.6
		l-1.6,9.3l13.5,8.7c2.2,1.3,2.6,3.6,1,4.9l0,0c-1.6,1.3-4.6,1.2-6.7-0.1l-13.5-9l-15.4,2.7c-2.5,0.4-5.3-0.7-6.3-2.6l0,0
		c-1-1.9,0.1-3.7,2.5-4.2l15.4-2.7l1.4-8.5c-11.6-2.2-22.5-6.4-32.3-12.2l-4.5,8.7l10.1,12.5c1.6,1.9,1.3,4.2-0.5,4.9l0,0
		c-1.9,0.7-4.7-0.3-6.4-2.2L102.7,265l-15.5-2.2c-2.5-0.4-4.8-2.3-5.2-4.4l0,0c-0.4-2.1,1.2-3.5,3.7-3.1l15.5,2.2l4.8-9.3
		c-11.3-8.3-20.7-19-27.6-31.4l-10.7,2.4l-3,15.7c-0.5,2.5-2.4,3.7-4.2,2.8l0,0c-1.8-1-2.8-3.8-2.4-6.3l3-15.7l-8.4-13.3
		c-1.3-2.1-1.3-5.1,0-6.9l0,0c1.3-1.6,3.4-1.3,4.7,0.8l8.3,13.2l8-1.8c-3.4-7.9-5.8-16.3-7-25.2c-1.1-8.2-1.3-16.3-0.4-24.1l-6-0.4
		L53,172.3c-1.1,2.3-3.3,2.9-4.7,1.5l0,0c-1.4-1.4-1.7-4.5-0.6-6.7l7.2-14.3l-4.4-14.9c-0.7-2.4,0.1-5.3,1.9-6.6l0,0
		c1.7-1.2,3.7-0.4,4.4,2l4.4,15l6.6,0.4c2.6-12.6,7.7-24.4,14.6-34.8l-6.4-2.1l-10.7,11.9c-1.6,1.9-4,2-4.9,0.3l0,0
		c-1-1.7-0.5-4.7,1.1-6.6l10.6-12l-0.4-15.6c-0.1-2.5,1.5-5.1,3.4-5.9l0,0c2-0.8,3.7,0.6,3.7,3.1l0.4,15.7l9.3,2.9
		c7.8-9.5,17.4-17.5,28.4-23.4l-2.7-5.4l-16,0.8c-2.5,0.1-4.2-1.3-3.7-3.4l0,0c0.5-2,3-3.7,5.5-3.8l16-0.9l10.8-11.3
		c1.7-1.8,4.7-2.5,6.6-1.6l0,0c1.9,0.9,2.2,3,0.4,4.8l-10.8,11.3l2.6,5.1C133.5,74.2,142,71.9,150.9,70.6L150.9,70.6z"/>
</g>
</svg>
