<?xml version="1.0" encoding="utf-8"?>
<!-- Source: https://pixabay.com/vectors/corona-virus-sars-cov-2-covid-19-4944188/; Pixabay License -->
<svg version="1.1" id="Layer_1" xmlns:xodm="http://www.corel.com/coreldraw/odm/2003"
	 xmlns="http://www.w3.org/2000/svg" xmlns:xlink="http://www.w3.org/1999/xlink" x="0px" y="0px" viewBox="0 0 331.3 338.8"
	 style="enable-background:new 0 0 331.3 338.8;" xml:space="preserve">
<g id="Ebene_x0020_1">
	<path fill-rule="evenodd" clip-rule="evenodd" fill="currentColor"
    d="M61.9,244.9L61.9,244.9c-1.5-2.3-0.9-6.4,1.2-9.1L77,218.9l-1.3-21.1c-0.2-3.3,1.8-7,4.4-8.2l0,0
		c2.6-1.1,5,0.6,5.2,4l1.3,21.1l15.1,4.3c2.4,0.7,3.4,4.1,2.3,7.5l0,0c-1.1,3.5-4,5.7-6.4,5.1l-15.1-4.3l-13.8,16.8
		C66.4,246.9,63.4,247.2,61.9,244.9L61.9,244.9z M272,105.8L272,105.8c2.3,1.6,3.3,5.6,2.3,8.9l-6.4,20.8l9.2,19.1
		c1.5,3,1,7.2-1,9.2l0,0c-2,2.1-4.9,1.3-6.3-1.7l-9.2-19.1l-15.6,1.8c-2.5,0.3-4.7-2.5-5-6.1l0,0c-0.3-3.6,1.6-6.8,4-7.1l15.6-1.8
		l6.4-20.8C267,105.6,269.7,104.2,272,105.8L272,105.8z M222,278.6L222,278.6c-1.8,2.3-6,3.3-9.5,2.1l-21.8-7.6l-20.5,9
		c-3.2,1.4-7.6,0.8-9.7-1.4h0c-2.1-2.2-1.2-5.2,2.1-6.6l20.5-9l-1.3-16.6c-0.2-2.6,2.8-4.9,6.7-5l0,0c3.9-0.1,7.2,1.9,7.4,4.5
		l1.3,16.6l21.8,7.6C222.4,273.4,223.8,276.3,222,278.6L222,278.6z M68.8,87.8L68.8,87.8c0.7-2.8,4.3-5.3,8-5.5l23-1.2L115.4,65
		c2.5-2.5,6.8-3.6,9.5-2.4h0c2.8,1.2,3,4.4,0.6,6.9l-15.6,16.1l7.5,14.9c1.2,2.4-0.7,5.6-4.3,7.2l0,0c-3.5,1.6-7.4,0.9-8.5-1.4
		l-7.4-14.9l-23,1.2C70.5,92.7,68.1,90.6,68.8,87.8z M226.8,230.4L226.8,230.4c-2-2.4-1.7-6,0.7-8.1l15.2-12.9l-3.6-19.6
		c-0.6-3.1,1.5-6.1,4.6-6.6l0,0c3.1-0.6,6.1,1.5,6.6,4.6l3.5,19.6l18.7,6.7c3,1.1,4.5,4.3,3.5,7.3l0,0c-1.1,3-4.3,4.5-7.3,3.5
		l-18.7-6.7L234.8,231C232.4,233.1,228.8,232.8,226.8,230.4L226.8,230.4z M84.5,129.2L84.5,129.2c2.8,1.5,3.9,4.9,2.4,7.7l-9.2,17.6
		l10.7,16.8c1.7,2.7,0.9,6.2-1.7,7.9l0,0c-2.7,1.7-6.2,0.9-7.9-1.7l-10.7-16.8l-19.9,0.9c-3.1,0.1-5.8-2.3-6-5.5l0,0
		c-0.1-3.1,2.3-5.8,5.5-6l19.9-0.9l9.2-17.6C78.2,128.8,81.7,127.7,84.5,129.2L84.5,129.2z M88.6,250.1L88.6,250.1
		c-0.4-3.4,1.9-5.6,5.1-5l20,3.7l8-16.5c1.3-2.6,4.7-3,7.6-0.8h0c2.9,2.2,4.3,6.1,3,8.7l-8,16.5l12,20.2c1.9,3.2,1.4,6.8-1.2,7.9
		l0,0c-2.6,1.2-6.2-0.5-8.1-3.7l-12-20.2l-20-3.7C91.8,256.6,88.9,253.4,88.6,250.1L88.6,250.1z M203.2,63.7L203.2,63.7
		c1.6,3,0.3,5.9-2.8,6.6l-19.9,4.1l-1.2,18.3c-0.2,2.9-3.2,4.5-6.7,3.6l0,0c-3.5-0.9-6.3-4-6.1-6.9l1.2-18.3l-18.7-14.2
		c-3-2.2-3.8-5.7-1.9-7.8l0,0c1.9-2,5.9-1.9,8.9,0.3l18.7,14.2l19.9-4.1C197.7,58.9,201.6,60.7,203.2,63.7L203.2,63.7z M158.2,117.7
		L158.2,117.7c2.4,3.1,1.8,7.6-1.3,10l-19.7,15.1l3.2,24.6c0.5,3.9-2.3,7.5-6.1,8h0c-3.9,0.5-7.5-2.3-8-6.1l-3.2-24.6l-22.9-9.5
		c-3.6-1.5-5.3-5.7-3.8-9.3l0,0c1.5-3.6,5.7-5.3,9.3-3.8l22.9,9.5l19.7-15.1C151.3,114,155.8,114.6,158.2,117.7L158.2,117.7z
		 M216.9,183.1L216.9,183.1c1.1,3.7-1,7.7-4.7,8.9l-23.7,7.2l-5.6,24.1c-0.9,3.8-4.7,6.2-8.6,5.3l0,0c-3.8-0.9-6.2-4.7-5.3-8.6
		l5.6-24.1L156.6,179c-2.9-2.7-3-7.2-0.3-10.1l0,0c2.7-2.9,7.2-3,10.1-0.3l18.1,16.9l23.7-7.2C211.8,177.2,215.8,179.3,216.9,183.1
		L216.9,183.1z M231.7,98L231.7,98c3,2.5,3.4,7,0.8,10l-16,18.9l8.3,23.3c1.3,3.7-0.6,7.8-4.3,9.1l0,0c-3.7,1.3-7.8-0.6-9.1-4.3
		l-8.3-23.3l-24.4-4.4c-3.9-0.7-6.4-4.4-5.7-8.3l0,0c0.7-3.9,4.4-6.4,8.3-5.7l24.4,4.4l16-18.9C224.2,95.9,228.7,95.5,231.7,98z
		 M145,31.5c6.4-0.9,12.7-1.3,18.9-1.3l-1.6-9l-22.4-5.5c-3.5-0.9-5.2-3.6-3.7-6.1l0,0c1.5-2.5,5.7-3.8,9.2-3l22.4,5.5l19.6-10.9
		c3.1-1.7,7.5-1.5,9.8,0.5h0c2.3,2,1.7,5-1.4,6.8l-19.6,10.9l2,11.5c20.9,2.1,40.7,9,58.1,19.7l3.6-7.3l-14.4-17.1
		c-2.3-2.7-2-5.8,0.6-6.9l0,0c2.6-1.1,6.6,0.2,8.9,3l14.4,17.1l21.6,2.6c3.4,0.4,6.8,3.1,7.4,6v0c0.7,2.9-1.6,4.9-5,4.5l-21.6-2.6
		l-4.2,8.5c17.9,13.6,32.5,31.6,42.1,52.7l8.3-2.4l2.8-22.2c0.4-3.5,2.9-5.4,5.5-4.2l0,0c2.6,1.2,4.3,5,3.9,8.6l-2.8,22.2l12.8,17.7
		c2,2.8,2.3,7.1,0.6,9.5l0,0c-1.7,2.4-4.7,2.2-6.7-0.6l-12.8-17.7l-6.6,1.9c2.7,8,4.7,16.4,6,25.1c1.6,11.7,1.8,23.2,0.5,34.4
		l7.3,2.5l15-16.6c2.4-2.6,5.5-2.8,6.9-0.3l0,0c1.4,2.5,0.7,6.6-1.7,9.3l-15,16.6l0.3,21.8c0,3.4-2.2,7.1-5,8.2l0,0
		c-2.8,1-5.1-0.9-5.1-4.4l-0.3-21.8l-4.6-1.6c-4.2,19.6-12.6,37.8-24.4,53.6l9.4,4.7l17.2-14.4c2.7-2.3,5.8-2,6.9,0.7l0,0
		c1.1,2.6-0.3,6.6-3,8.9L288,264.9l-2.7,21.6c-0.4,3.4-3.2,6.7-6,7.4l0,0c-2.9,0.6-4.9-1.6-4.5-5l2.7-21.6l-11.7-5.8
		c-12.6,13.7-27.9,24.9-45.3,32.7l2.9,13.2l22,4.4c3.5,0.7,5.2,3.3,3.8,5.8l0,0c-1.4,2.5-5.3,4-8.8,3.3l-22-4.4l-18.5,11.4
		c-2.9,1.8-7.2,1.8-9.6-0.1h0c-2.3-1.8-1.8-4.8,1.1-6.6l18.5-11.4l-2.3-10.5c-7.8,2.6-15.9,4.5-24.2,5.7
		c-10.6,1.5-21.1,1.7-31.3,0.8l-2.2,12.9l18.8,12.2c3,1.9,3.6,5,1.4,6.8l0,0c-2.2,1.8-6.4,1.7-9.4-0.2L141.9,325l-21.5,3.7
		c-3.4,0.6-7.4-1-8.8-3.6v0c-1.5-2.6,0.1-5.2,3.5-5.8l21.5-3.7l2-11.9c-16.1-3-31.3-8.9-45.1-17.1l-6.2,12.1l14.2,17.4
		c2.2,2.7,1.9,5.8-0.7,6.9l0,0c-2.6,1-6.6-0.4-8.9-3.1l-14.2-17.4l-21.6-3c-3.4-0.5-6.7-3.2-7.3-6.1v0c-0.6-2.9,1.7-4.9,5.1-4.4
		l21.6,3l6.7-13c-15.7-11.6-28.9-26.5-38.5-43.8l-14.9,3.3l-4.2,22c-0.7,3.5-3.3,5.2-5.8,3.9l0,0c-2.5-1.4-4-5.3-3.3-8.8l4.2-22
		L8,215.1c-1.8-2.9-1.8-7.2,0-9.6v0c1.8-2.3,4.8-1.9,6.6,1.1L26.2,225l11.1-2.5c-4.7-11-8.1-22.8-9.8-35.2
		c-1.6-11.4-1.8-22.7-0.6-33.6l-8.4-0.5l-10.1,20c-1.6,3.2-4.6,4.1-6.6,2.1l0,0c-2-2-2.4-6.2-0.8-9.4l10.1-20L5,125.1
		c-1-3.3,0.2-7.4,2.6-9.2h0c2.4-1.7,5.1-0.5,6.1,2.8l6.1,20.9l9.2,0.5c3.6-17.6,10.7-34,20.4-48.6l-9-2.9l-14.8,16.8
		c-2.3,2.7-5.5,2.8-6.9,0.4l0,0c-1.5-2.4-0.7-6.6,1.6-9.3l14.8-16.8L34.6,58c-0.1-3.4,2.1-7.1,4.8-8.2l0,0c2.8-1.1,5.1,0.8,5.2,4.3
		l0.6,21.8l12.9,4.1C69,66.8,82.3,55.7,97.6,47.3l-3.7-7.5L71.4,41c-3.5,0.2-5.8-1.9-5.1-4.7l0,0c0.7-2.8,4.2-5.2,7.7-5.3l22.4-1.2
		l15.1-15.7c2.4-2.5,6.6-3.5,9.3-2.3h0c2.7,1.2,3,4.2,0.6,6.7l-15.1,15.7l3.6,7.1C120.8,36.6,132.6,33.3,145,31.5L145,31.5z"/>
</g>
</svg>
