<svg xmlns="http://www.w3.org/2000/svg" viewBox="0 0 357.33 43.63"><title>Asset 2</title><g id="Layer_2" data-name="Layer 2"><g id="Art"><path fill="#fff" d="M41.08,32.41c-5.55,0-6-4.19-6-5.49A5.46,5.46,0,0,1,39,21.42c3.64-1.34,4.42-1.5,6.94-2.28v-.66a5.81,5.81,0,0,0-.25-2.27A3.68,3.68,0,0,0,42,13.87a4.47,4.47,0,0,0-4.13,2.54l-1-.61c.65-2.31,3-4.61,7-4.61,2.85,0,4.72.81,5.86,2.55.87,1.39.94,3.31.94,5.31,0,1.76,0,3.72-.08,5.3,0,1.1-.06,2-.06,2.61,0,1.44.23,2.56,1.43,2.56.5,0,.6-.13,1-.47l.66.75c-1.08,1.42-2.27,2.58-4.27,2.58A3,3,0,0,1,46.2,30.3,6.89,6.89,0,0,1,41.08,32.41ZM46,21.66a22.17,22.17,0,0,0-4.49,1.71,3.38,3.38,0,0,0-1.79,3.21,2.72,2.72,0,0,0,3,3A5.57,5.57,0,0,0,46,28.59ZM.15,31.31c0-2.06,0-3.8-.15-5.91H1.22a4.4,4.4,0,0,0,.94,2.91C3,29.29,5,29.88,6.9,29.88c3.89,0,5.71-1.48,5.71-4.65,0-2.71-1.68-3.84-4-5.41l-.36-.25L5.81,17.94C2.4,15.69.66,13.88.66,10.28c0-1.77.67-7.52,9.24-7.52a43.77,43.77,0,0,1,6.72.54c0,.28,0,1.6,0,2.7,0,1.29,0,1.71.05,3.29h-1a4.05,4.05,0,0,0-1-2.88c-.84-.82-2.66-1.2-4.59-1.2-4.54,0-5.07,2.33-5.07,4.08,0,2.41,1.23,3.23,3.92,5L12,16.35c2.64,1.76,5.13,3.43,5.13,7.81,0,7.42-6.91,8.21-9.88,8.21A21.35,21.35,0,0,1,.15,31.31ZM55.42,12.55a18.05,18.05,0,0,0,4.13-.29,7.76,7.76,0,0,0,2.73-.89l.4.24v1.62a10.08,10.08,0,0,1,5.94-2c3.67,0,6.09,1.72,6.77,4.85a21.75,21.75,0,0,1,.27,3.66v6c0,3.37.13,4.31.76,4.92a3.29,3.29,0,0,0,2,.59v1c-1.31-.07-3.65-.2-5.06-.2-1.87,0-4,.09-5.11.22V31.3a3.55,3.55,0,0,0,2.06-.75c.59-.59.69-1.77.78-4.32,0-.75,0-2.36,0-3.53A43.34,43.34,0,0,0,70.94,18c-.31-2.65-1.7-3.87-4.34-3.87a8.07,8.07,0,0,0-3.84.85V25.75c0,3.37.14,4.31.78,4.92a3.27,3.27,0,0,0,2,.59v1c-1.7-.09-3.73-.2-5-.2a39.65,39.65,0,0,0-5.16.22v-1a3,3,0,0,0,2.22-.88c.63-.7.67-2.45.67-5.92V18.62c0-2.53,0-3.6-.41-4.15s-1-.76-2.39-.75Zm25.42,18.7a3,3,0,0,0,2.22-.87c.64-.71.67-2.44.67-5.91V14.32H81.06V13.17a11.58,11.58,0,0,0,2.67-1.38A35,35,0,0,1,84,6.37C84.82,2.15,87.61,0,92.23,0a8.22,8.22,0,0,1,5.16,1.7l.07.43-2,2.81h-.49c-.69-1.7-1.73-2.67-3.56-2.67A3,3,0,0,0,89.31,3c-.88.88-1,2.19-1,4.81v3.95h4.56v2.54H88.28V25.66c0,2.69.09,4,.44,4.55.57.85,2.37,1,3.25.92v1.09c-1.5-.09-3.83-.2-5.58-.2a51.15,51.15,0,0,0-5.55.22Zm23.53,1.34c-6.24,0-10-3.9-10-10.4,0-5.07,2.72-11,10.4-11,6.24,0,10,3.89,10,10.41C114.77,26.67,112,32.59,104.37,32.59Zm.26-19a4.33,4.33,0,0,0-2.91.93c-1.63,1.38-2.47,3.87-2.47,7.45,0,1.37.26,8.25,5.3,8.25a4.29,4.29,0,0,0,2.88-.92c1.65-1.38,2.48-3.89,2.48-7.47C109.91,20.47,109.66,13.59,104.63,13.59Zm12.2-1.11a19.58,19.58,0,0,0,4.47-.37,10.59,10.59,0,0,0,2.43-.68l.37.18v1.77a6.77,6.77,0,0,1,4.72-1.89,4.94,4.94,0,0,1,3.57,1.26v.65l-1.72,3.15h-.84a3.67,3.67,0,0,0-3.41-1.84,3.93,3.93,0,0,0-2.24.64V25.66c0,2.69.09,4,.45,4.5.57.87,2.26,1,3.24.92v1.14c-1.41-.08-3.83-.2-5.58-.2a53.12,53.12,0,0,0-5.55.22v-1a2.91,2.91,0,0,0,2.22-.88c.64-.71.67-2.39.67-5.86V18.62c0-2.53,0-3.62-.4-4.15s-1.08-.73-2.4-.75ZM145.61,1.19a30.68,30.68,0,0,0,4.81-.57,13.78,13.78,0,0,0,2.22-.54l.35.2c-.17,1.69-.17,5.49-.17,8.19V25.15c0,2.49,0,4,.4,4.53s1.07.77,2.35.78v1.09a28.22,28.22,0,0,0-4.4.43,9,9,0,0,0-2.26.55l-.56-.19V30.62a9.7,9.7,0,0,1-5.71,1.92c-5.62,0-9.24-3.89-9.24-9.92a13.77,13.77,0,0,1,1.1-5.52c1.72-3.71,5.28-5.83,9.77-5.83a20,20,0,0,1,4,.39V7.3c0-2.54,0-3.9-.41-4.45s-.71-.62-2.24-.73Zm-.71,28.42a6,6,0,0,0,3.36-.83V15.08a5.76,5.76,0,0,0-4.08-1.36c-4,0-5.92,2.72-5.92,8.33C138.26,24.4,139,29.61,144.9,29.61Zm-111.85.58a6.78,6.78,0,0,1-5.54,2.33c-3.16,0-4.93-1.12-5.7-3.65a17.57,17.57,0,0,1-.32-4.17c0-3.27,0-5.89.07-8.93V14.34H18.88v-.8a9.91,9.91,0,0,0,2.56-1.41,15.06,15.06,0,0,0,3.8-4.92h.9v4.6h7v2.53h-7V25.08c0,3.22.59,5,3.62,5a6.07,6.07,0,0,0,2.94-.76ZM344.87,12.83a2.84,2.84,0,0,0-1.66.52,1.25,1.25,0,0,0-.44,1,6.21,6.21,0,0,0,.55,2l3,8c.45,1.19.78,2.18,1,2.88L351,16.29a5.68,5.68,0,0,0,.51-2,1.31,1.31,0,0,0-.36-.79,2.75,2.75,0,0,0-1.72-.59V11.71c.44,0,1.4.06,1.85.09s1.3.09,2,.09c1.36,0,3.26-.11,4.08-.2v1.2c-.55.07-1.83-.1-2.83,3l-7.84,21c-1.14,3-2.57,6.79-8.06,6.79A6.68,6.68,0,0,1,333.69,42v-.57l1.93-2.35h.55a3.09,3.09,0,0,0,3.12,1.8c2.49,0,3.58-2.13,5.29-6.66l.47-1.23-6.67-17.06c-.05-.12-.14-.36-.25-.62-.19-.46-.54-1.26-.54-1.26a2,2,0,0,0-2-1.13V11.69c1.27.11,3.43.2,4.55.2.75,0,1.86-.05,2.84-.1l1.89-.08ZM272,12.46a20.08,20.08,0,0,0,4.47-.36,10,10,0,0,0,2.43-.69l.37.18v1.78a6.79,6.79,0,0,1,4.72-1.9,4.9,4.9,0,0,1,3.57,1.27v.64l-1.72,3.16H285a3.67,3.67,0,0,0-3.41-1.85,3.83,3.83,0,0,0-2.23.65V25.65c0,2.69.09,4,.44,4.5.57.86,2.27,1,3.24.92V32.2c-1.41-.07-3.83-.2-5.57-.2a53.21,53.21,0,0,0-5.56.22v-1a2.91,2.91,0,0,0,2.22-.87c.64-.72.67-2.39.67-5.87V18.61c0-2.54,0-3.63-.4-4.16s-1.08-.73-2.4-.74Zm-91.86,20c-5.83,0-9.17-1.81-10.52-5.69a20.85,20.85,0,0,1-.66-6.39v-11c0-3.34-.16-3.84-.78-4.39a3.62,3.62,0,0,0-2-.62V3.31c1.38.15,3.65.21,5.07.21a51.18,51.18,0,0,0,5.21-.21V4.48a2.63,2.63,0,0,0-2.2.81c-.64.72-.68,2-.68,5.45v9.72c0,5.73.5,9.48,7.09,9.48s7-3.86,7-9.74V9.45c0-3.34-.16-3.84-.77-4.39a3.74,3.74,0,0,0-2-.62V3.33c1.29,0,2.94.19,4.52.19s3,0,4.86-.21V4.48a2.61,2.61,0,0,0-2.2.81c-.65.72-.68,2-.68,5.45V19c0,2.61,0,5.57-.84,7.87C189.25,30.7,185.91,32.5,180.14,32.5Zm39.3-1.26a3.32,3.32,0,0,0,2.38-.85c.64-.72.67-2.38.67-5.91V18.64c0-2.53,0-3.77-.41-4.34s-.88-.66-2.34-.76V12.37a19,19,0,0,0,4.7-.41,7.7,7.7,0,0,0,2.26-.72l.46.46C227,13,227,16,227,19.8v6c0,2.7.09,3.95.45,4.49a3.2,3.2,0,0,0,2.51,1v1c-1.23-.07-3.33-.19-5.16-.19-2.05,0-4.23.09-5.34.21Zm5.08-23.51a2.47,2.47,0,0,1-2.67-2.54,2.55,2.55,0,0,1,2.75-2.64,2.48,2.48,0,0,1,2.68,2.55A2.56,2.56,0,0,1,224.52,7.73Zm82,23.51a3.32,3.32,0,0,0,2.38-.85c.64-.72.67-2.38.67-5.91V18.64c0-2.53,0-3.77-.41-4.34s-.88-.66-2.34-.76V12.37a19,19,0,0,0,4.7-.41,7.7,7.7,0,0,0,2.26-.72l.46.46c-.13,1.31-.18,4.28-.18,8.1v6c0,2.7.08,3.95.44,4.49a3.22,3.22,0,0,0,2.51,1v1c-1.23-.07-3.33-.19-5.16-.19-2,0-4.22.09-5.33.21Zm5.08-23.51A2.47,2.47,0,0,1,309,5.19a2.56,2.56,0,0,1,2.76-2.64,2.47,2.47,0,0,1,2.67,2.55A2.55,2.55,0,0,1,311.64,7.73ZM289.88,31.48a53.58,53.58,0,0,0-.26-5.4H291a4.24,4.24,0,0,0,.88,2.68c.82,1,1.8,1.36,3.61,1.36h.25c2.26,0,3.41-1,3.41-2.83,0-1.54-1-2.16-2.6-3.19l-2.93-1.8c-1.54-.95-3.32-2.39-3.32-5.2a5.16,5.16,0,0,1,2.93-5,10.11,10.11,0,0,1,4.09-.73,30,30,0,0,1,5.4.52,21.1,21.1,0,0,0-.13,2.45c0,.43,0,2.38.08,2.73h-1.35a3.72,3.72,0,0,0-.76-2.35,4.27,4.27,0,0,0-3.24-1.18c-2.08,0-3.14.88-3.14,2.62,0,1.43,1.1,2.1,2.08,2.69l.1.06,2.75,1.63c1.84,1.08,4.14,2.42,4.14,5.72,0,5.39-4.9,6.19-7.83,6.19A15.61,15.61,0,0,1,289.88,31.48Zm43.27-1.34a6.73,6.73,0,0,1-5.54,2.34c-3.16,0-4.92-1.13-5.7-3.66a18,18,0,0,1-.31-4.16c0-3.28,0-5.9.06-8.93V14.3H319v-.8a9.6,9.6,0,0,0,2.56-1.42,15,15,0,0,0,3.81-4.91h.9v4.59h6.94V14.3h-6.94V25c0,3.21.58,5,3.61,5a5.91,5.91,0,0,0,2.94-.77ZM239.92,11.71c-.41,0-1.34,0-1.88.08-1,.05-2.24.1-3,.1-1.5,0-3.73-.13-4.42-.2v1.22a2,2,0,0,1,2,1.19c.24.52.46,1,.53,1.2s.23.59.29.72L240,32.59l2-.35L249.32,16l.24-.51a12.3,12.3,0,0,1,.65-1.3,2.38,2.38,0,0,1,2.13-1.21l0-1.24c-.83.06-2.63.2-4,.2-.7,0-1.41,0-2.1-.09-.48,0-1.37-.08-1.86-.09v1.15a2.68,2.68,0,0,1,1.72.56,1.22,1.22,0,0,1,.36.78,5.24,5.24,0,0,1-.55,2.06L242,26c-.19-.59-.46-1.4-.85-2.42l-2.8-7.35a5.55,5.55,0,0,1-.52-2,1,1,0,0,1,.27-.74,2.41,2.41,0,0,1,1.77-.64Zm-45,.84a18.13,18.13,0,0,0,4.14-.29,7.71,7.71,0,0,0,2.72-.89l.4.24v1.62a10.11,10.11,0,0,1,5.94-2c3.68,0,6.09,1.72,6.77,4.85a21.75,21.75,0,0,1,.27,3.66v6c0,3.37.13,4.31.76,4.92a3.3,3.3,0,0,0,2,.59v1c-1.32-.07-3.66-.2-5.06-.2-1.88,0-4,.09-5.12.22V31.3a3.55,3.55,0,0,0,2.06-.75c.59-.59.69-1.77.78-4.32,0-.75,0-2.36,0-3.53a40.94,40.94,0,0,0-.18-4.68c-.31-2.65-1.7-3.87-4.34-3.87a8,8,0,0,0-3.83.85V25.75c0,3.37.13,4.31.77,4.92a3.27,3.27,0,0,0,2,.59v1c-1.7-.09-3.73-.2-5-.2a39.38,39.38,0,0,0-5.15.22v-1a3.08,3.08,0,0,0,2.22-.88c.62-.7.66-2.45.66-5.92V18.62c0-2.53,0-3.6-.41-4.15s-1-.76-2.39-.75ZM262,32.45c-6.17,0-9.55-3.55-9.55-10,0-1.14.27-11.11,9.64-11.11a7.31,7.31,0,0,1,6.39,3.07,10,10,0,0,1,1.35,5.54V21H256.93a15.28,15.28,0,0,0,.21,2.59c.69,3.95,2.89,5.87,6.75,5.87a9.12,9.12,0,0,0,4.86-1.21l.61,1A9.4,9.4,0,0,1,262,32.45Zm-5-13.68h8c0-2.42-.48-5.18-4-5.18C257.71,13.59,257.05,16.67,257,18.77Z"/></g></g></svg>
